<?xml version="1.0" standalone="no"?><!DOCTYPE svg PUBLIC "-//W3C//DTD SVG 1.1//EN" "http://www.w3.org/Graphics/SVG/1.1/DTD/svg11.dtd"><svg xmlns="http://www.w3.org/2000/svg" xmlns:xlink="http://www.w3.org/1999/xlink"><symbol viewBox="-62.5 -62.5 325 325" id="baozhang"><defs><style/></defs><path d="M87.472 115.107l-27.2-27.195-3.982 3.983 27.195 27.195 3.982 3.982 3.988-3.982 52.255-52.261-3.982-3.983zm95.75-83.011c-44.974 1.56-73.5-13.438-81.894-18.581-.498-.303-.971-.594-1.326-.82-.354.226-.833.517-1.32.82-8.405 5.143-36.922 20.14-81.906 18.58 0 0-12.937 112.622 82.506 154.869.245.107.476.233.72.34.248-.107.473-.233.718-.34 95.448-42.247 82.503-154.868 82.503-154.868zM100 181.11C21.33 145.19 20.74 59.838 21.972 37.838c.434.003.866.003 1.298.003 39.766 0 65.957-12.283 76.735-18.556 10.74 6.262 36.92 18.556 76.716 18.556.006 0 .872 0 1.31-.005 1.229 22.002.646 107.34-78.031 143.275z" class="atransform-group"/></symbol></svg>