<?xml version="1.0" standalone="no"?><!DOCTYPE svg PUBLIC "-//W3C//DTD SVG 1.1//EN" "http://www.w3.org/Graphics/SVG/1.1/DTD/svg11.dtd"><svg width="200" height="200" viewBox="0 0 200 200" version="1.1" xmlns="http://www.w3.org/2000/svg" xmlns:xlink="http://www.w3.org/1999/xlink"><defs><style type="text/css"><![CDATA[

]]></style></defs><g class="transform-group"><g transform="scale(0.1953125, 0.1953125)"><path d="M447.859 589.349 308.595 450.112 288.204 470.502 427.441 609.739 447.831 630.129 468.249 609.739 735.796 342.164 715.406 321.774ZM938.101 164.33c-230.273 7.984-376.325-68.802-419.302-95.134-2.549-1.549-4.971-3.042-6.787-4.196-1.816 1.155-4.267 2.647-6.759 4.196C462.22 95.528 316.21 172.314 85.895 164.33c0 0-66.239 576.619 422.428 792.924 1.253 0.549 2.436 1.197 3.689 1.746 1.268-0.549 2.422-1.197 3.676-1.746C1004.382 740.949 938.101 164.33 938.101 164.33zM511.998 927.289c-402.785-183.918-405.812-620.92-399.503-733.557 2.225 0.014 4.436 0.014 6.646 0.014 203.603 0 337.7-62.888 392.885-95.007 54.988 32.063 189.029 95.007 392.787 95.007 0.028 0 4.464 0 6.702-0.028C917.81 306.369 914.824 743.301 511.998 927.289z"></path></g></g></svg>
