<?xml version="1.0" standalone="no"?><!DOCTYPE svg PUBLIC "-//W3C//DTD SVG 1.1//EN" "http://www.w3.org/Graphics/SVG/1.1/DTD/svg11.dtd"><svg width="200" height="200" viewBox="0 0 200 200" version="1.1" xmlns="http://www.w3.org/2000/svg" xmlns:xlink="http://www.w3.org/1999/xlink"><defs><style type="text/css"><![CDATA[

]]></style></defs><g class="transform-group"><g transform="scale(0.1953125, 0.1953125)"><path d="M952.466 441.933l-26.929 26.929c1.043 11.806 1.781 23.655 1.781 35.722 0 229.018-186.314 415.333-415.333 415.333-158.169 0.016-295.71-89.057-365.821-219.559l145.813-0.652 0.072-23.654-183.794 0.738-0.058 13.225-0.695 0c0.188 0.449 0.493 0.941 0.681 1.391l-0.695 169.18 23.67-0.029 0.579-125.402C209.8 863.611 350.731 949.598 511.985 949.584c245.764-0.016 445-199.252 445.015-445C957 483.29 955.392 462.401 952.466 441.933zM511.985 104.069c158.198-0.015 295.739 89.072 365.821 219.56l-145.813 0.651-0.044 23.655 183.78-0.738 0.058-13.211 0.71 0c-0.218-0.464-0.492-0.928-0.71-1.405l0.71-169.178-23.685 0.058-0.564 125.403C814.2 160.404 673.269 74.417 512 74.417c-245.764 0-444.985 199.236-445 445-0.015 21.236 1.593 42.096 4.505 62.535l26.929-26.93c-1.043-11.762-1.782-23.596-1.782-35.619C96.667 290.398 282.996 104.069 511.985 104.069z" fill="#272636"></path></g></g></svg>